<?xml version="1.0" encoding="iso-8859-1"?>
<!-- Generator: Adobe Illustrator 18.1.1, SVG Export Plug-In . SVG Version: 6.00 Build 0)  -->
<svg version="1.1" id="Capa_1" xmlns="http://www.w3.org/2000/svg" xmlns:xlink="http://www.w3.org/1999/xlink" x="0px" y="0px"
	 viewBox="0 0 290.142 290.142" style="enable-background:new 0 0 290.142 290.142;" xml:space="preserve">
<g>
	<path id="path8073" d="M145.071,0.071c-52.407,0-94.998,42.593-94.998,95c0,50.731,39.911,92.262,90.002,94.867
		c-0.002,0.044-0.003,0.089-0.004,0.133v50c-0.003,0.168,0.003,0.335,0.018,0.502c-9.774,1.998-17.52,9.747-19.516,19.521
		c-0.167-0.016-0.334-0.024-0.502-0.023h-115c-2.761-0.039-5.032,2.168-5.071,4.929c-0.039,2.761,2.168,5.032,4.929,5.071
		c0.047,0.001,0.094,0.001,0.141,0h115c0.168,0.003,0.335-0.003,0.502-0.018c2.327,11.383,12.455,20.018,24.498,20.018
		c12.045,0,22.174-8.638,24.498-20.023c0.167,0.016,0.334,0.024,0.502,0.023h115c2.761,0.039,5.032-2.168,5.071-4.929
		c0.039-2.761-2.168-5.032-4.929-5.071c-0.047-0.001-0.094-0.001-0.141,0h-115c-0.168-0.003-0.335,0.003-0.502,0.018
		c-1.998-9.774-9.747-17.52-19.521-19.516c0.016-0.167,0.024-0.334,0.023-0.502v-50c-0.001-0.044-0.002-0.089-0.004-0.133
		c50.091-2.605,90.004-44.136,90.004-94.867C240.071,42.664,197.479,0.071,145.071,0.071z M145.071,10.071
		c1.767,0,3.52,0.06,5.26,0.166c5.821,5.85,11.1,14.408,15.301,24.857c-3.554,2.308-6.246,5.834-7.469,9.977h-36.311
		c4.617-15.001,11.178-27.264,18.766-34.885C142.093,10.111,143.577,10.071,145.071,10.071z M125.981,12.218
		c-6.232,8.961-11.185,20.177-14.736,32.854h-34.93C88.175,28.777,105.675,16.864,125.981,12.218z M165.015,12.423
		c19.943,4.782,37.121,16.583,48.814,32.648h-21.422c-2.183-7.397-9.053-12.857-17.121-12.857c-0.013,0-0.025,0.002-0.037,0.002
		C172.362,24.849,168.955,18.175,165.015,12.423z M175.286,42.214c4.399,0,7.855,3.459,7.855,7.857s-3.457,7.855-7.855,7.855
		s-7.857-3.457-7.857-7.855S170.888,42.214,175.286,42.214z M70.034,55.071H108.8c-1.542,7.288-2.661,14.946-3.336,22.848
		c-5.856,1.689-10.504,6.31-12.229,12.15H60.224C60.953,77.465,64.416,65.605,70.034,55.071z M119.165,55.071h38.998
		c2.084,7.058,8.442,12.331,16.031,12.799c1.055,7.132,1.707,14.576,1.912,22.199h-48.627c-1.7-5.757-6.237-10.336-11.975-12.084
		C116.238,69.992,117.484,62.297,119.165,55.071z M192.407,55.071h27.703c5.618,10.533,9.082,22.394,9.811,34.998H186.11
		c-0.214-8.386-0.935-16.578-2.131-24.436C188.006,63.364,191.076,59.579,192.407,55.071z M110.356,87.214h0.002
		c4.399,0,7.855,3.459,7.855,7.857s-3.457,7.855-7.855,7.855h-0.002c-4.398-0.001-7.855-3.458-7.855-7.855
		c0-4.289,3.292-7.675,7.533-7.842h0.322V87.214z M60.224,100.069h33.012c1.724,5.841,6.373,10.461,12.229,12.15
		c0.674,7.903,1.792,15.561,3.334,22.85H70.032C64.414,124.535,60.952,112.675,60.224,100.069z M127.479,100.069h48.627
		c-0.203,7.624-0.853,15.068-1.908,22.201c-7.591,0.467-13.951,5.739-16.035,12.799h-39c-1.68-7.227-2.928-14.92-3.66-22.914
		C121.242,110.408,125.78,105.828,127.479,100.069z M186.112,100.069h43.809c-0.728,12.605-4.192,24.466-9.811,35h-27.703
		c-1.331-4.509-4.402-8.29-8.43-10.561C185.174,116.651,185.9,108.457,186.112,100.069z M175.286,132.214
		c4.399,0,7.855,3.459,7.855,7.857c0,4.399-3.457,7.855-7.855,7.855s-7.857-3.457-7.857-7.855S170.888,132.214,175.286,132.214z
		 M76.315,145.069h34.928c3.55,12.676,8.498,23.89,14.729,32.852C105.669,173.273,88.173,161.361,76.315,145.069z M121.851,145.069
		h36.312c1.223,4.144,3.916,7.673,7.473,9.98c-4.199,10.445-9.475,19-15.293,24.852c-1.744,0.106-3.5,0.168-5.271,0.168
		c-1.497,0-2.985-0.041-4.463-0.117C133.024,172.33,126.466,160.068,121.851,145.069z M192.407,145.069h21.422
		c-11.692,16.063-28.867,27.864-48.807,32.646c3.939-5.752,7.346-12.425,10.232-19.791c0.011,0,0.021,0.002,0.031,0.002
		C183.355,157.927,190.224,152.466,192.407,145.069z M145.071,250.071c8.343,0,15,6.657,15,15s-6.657,15-15,15s-15-6.657-15-15
		S136.728,250.071,145.071,250.071z M145.071,252.569c-6.874,0-12.5,5.626-12.5,12.5c-0.02,1.381,1.084,2.516,2.465,2.535
		c1.381,0.02,2.516-1.084,2.535-2.465c0-0.024,0-0.047,0-0.071c0-4.172,3.328-7.5,7.5-7.5c1.381,0.02,2.516-1.084,2.535-2.465
		c0.02-1.381-1.084-2.516-2.465-2.535C145.118,252.569,145.095,252.569,145.071,252.569z"/>
</g>
<g>
</g>
<g>
</g>
<g>
</g>
<g>
</g>
<g>
</g>
<g>
</g>
<g>
</g>
<g>
</g>
<g>
</g>
<g>
</g>
<g>
</g>
<g>
</g>
<g>
</g>
<g>
</g>
<g>
</g>
</svg>
