<svg height="512pt" viewBox="0 -21 512 512" width="512pt" xmlns="http://www.w3.org/2000/svg"><path d="m309.332031 202.667969c0 29.453125-23.875 53.332031-53.332031 53.332031s-53.332031-23.878906-53.332031-53.332031c0-29.457031 23.875-53.335938 53.332031-53.335938s53.332031 23.878907 53.332031 53.335938zm0 0"/><path d="m304 277.332031h-96c-32.363281 0-58.667969 26.304688-58.667969 58.667969v32c0 8.832031 7.167969 16 16 16h181.335938c8.832031 0 16-7.167969 16-16v-32c0-32.363281-26.304688-58.667969-58.667969-58.667969zm0 0"/><path d="m448 0h-384c-35.285156 0-64 28.714844-64 64v341.332031c0 35.285157 28.714844 64 64 64h384c35.285156 0 64-28.714843 64-64v-341.332031c0-35.285156-28.714844-64-64-64zm0 426.667969h-384c-11.753906 0-21.332031-9.578125-21.332031-21.335938v-298.664062h426.664062v298.664062c0 11.757813-9.578125 21.335938-21.332031 21.335938zm0 0"/></svg>